<?xml version="1.0" standalone="no"?>
<!DOCTYPE svg PUBLIC "-//W3C//DTD SVG 20010904//EN"
 "http://www.w3.org/TR/2001/REC-SVG-20010904/DTD/svg10.dtd">
<svg version="1.0" xmlns="http://www.w3.org/2000/svg"
 width="640.000000pt" height="893.000000pt" viewBox="0 0 640.000000 893.000000"
 preserveAspectRatio="xMidYMid meet">
<metadata>
Created by potrace 1.15, written by Peter Selinger 2001-2017
</metadata>
<g transform="translate(0.000000,893.000000) scale(0.100000,-0.100000)"
fill="#000000" stroke="none">
<path d="M1500 8449 c-131 -27 -207 -54 -330 -116 -252 -128 -455 -335 -573
-585 -47 -98 -72 -171 -97 -285 -20 -92 -20 -113 -20 -2998 0 -2885 0 -2906
20 -2998 78 -351 271 -626 585 -828 100 -65 248 -123 398 -158 127 -30 407
-30 540 0 310 68 552 226 765 496 17 23 32 45 32 49 0 4 6 15 14 23 21 24 95
169 117 231 11 30 32 96 46 145 l26 90 7 1005 c7 1037 7 1047 51 1270 48 244
129 471 223 626 80 130 129 196 213 281 165 167 326 270 553 355 300 113 513
147 975 158 298 7 336 10 395 29 184 60 319 174 404 339 21 41 14 42 -11 1
l-20 -30 -30 25 c-17 14 -33 26 -37 26 -5 0 -127 80 -136 90 -3 3 -30 21 -60
40 -30 19 -57 37 -60 40 -3 3 -30 22 -60 42 -30 21 -73 50 -96 65 -22 15 -48
33 -56 38 -9 6 -37 25 -62 43 -26 17 -51 32 -56 32 -5 0 -13 6 -17 13 -4 7
-33 28 -63 47 -30 19 -57 37 -60 40 -3 3 -30 21 -60 40 -30 19 -59 40 -63 47
-4 7 -12 13 -17 13 -5 0 -30 15 -55 33 -26 17 -54 37 -63 42 -10 6 -37 24 -61
40 -24 17 -51 35 -60 40 -9 6 -18 12 -21 16 -11 12 -102 69 -110 69 -4 0 -10
4 -12 8 -4 11 -97 72 -109 72 -5 0 -9 4 -9 9 0 6 -18 20 -40 32 -22 13 -40 26
-40 31 0 4 -4 8 -9 8 -6 0 -31 15 -57 33 -25 17 -53 37 -62 42 -9 6 -40 27
-69 48 -29 20 -56 37 -62 37 -5 0 -11 3 -13 8 -1 4 -28 23 -58 42 -30 19 -57
37 -60 40 -5 6 -106 75 -139 95 -9 6 -36 24 -60 40 -24 17 -51 35 -60 40 -8 6
-39 27 -68 48 -29 20 -56 37 -62 37 -5 0 -11 4 -13 8 -4 11 -97 72 -109 72 -5
0 -9 3 -9 8 0 4 -18 18 -40 32 -22 14 -40 28 -40 32 0 5 -4 8 -9 8 -6 0 -31
15 -56 33 -26 17 -54 37 -63 42 -43 26 -43 26 -31 41 15 18 8 18 -27 -1 -16
-8 -37 -15 -46 -15 -9 0 -20 -4 -23 -10 -12 -19 -35 -10 -35 13 0 25 -50 210
-75 276 -132 355 -431 646 -787 766 -201 68 -457 85 -658 44z"/>
</g>
</svg>
